<svg xmlns="http://www.w3.org/2000/svg" viewBox="0 0 638.89 180.47">
  <g id="Layer_2" data-name="Layer 2">
    <g id="Layer_1-2" data-name="Layer 1">
      <g>
        <g>
          <path d="M0,7.51H21V9.94q0,32.7,0,65.4a28.85,28.85,0,0,0,1.57,10.54,10.64,10.64,0,0,0,9,7.2A13.52,13.52,0,0,0,41,91.29a9.89,9.89,0,0,0,4.42-5.52,26.74,26.74,0,0,0,1.37-8.11q-.06-33.73,0-67.47V7.56h20.9c0,.58.12,1.18.12,1.77,0,23.66.27,47.33-.12,71-.17,10.44-5,18.79-14.6,23.81a39,39,0,0,1-15.48,4,48.55,48.55,0,0,1-17-1.47C10.26,103.7,1.92,95.87.73,84.29.38,80.87.05,77.43,0,74,0,52.76,0,31.51,0,10.26Z"/>
          <path d="M207,35.52H186.2c-.13-1.5-.16-2.94-.4-4.34-.46-2.66-1.05-5.33-3.16-7.25a9.78,9.78,0,0,0-3-2c-4.25-1.56-8.55-2-12.26,1.21a11,11,0,0,0-3.18,4.47A58.43,58.43,0,0,0,162,37.2c-1.38,9.25-.5,18.58-.67,27.88a76.14,76.14,0,0,0,1.34,16.84,31.24,31.24,0,0,0,1.86,5.89,9.29,9.29,0,0,0,7.45,5.59c4.66.8,9.17-.2,13.63-1.52A1.86,1.86,0,0,0,187,89.75c-.06-6.14,0-12.28,0-18.42,0-.4-.07-.81-.13-1.49H175V54.66h31.9c0,.61.15,1.2.15,1.79q0,23.07,0,46.15c0,2.1-.18,2.2-2.28,2.69a121.67,121.67,0,0,1-20.62,3,85.28,85.28,0,0,1-12.38-.16,68.18,68.18,0,0,1-11.17-1.86,23.27,23.27,0,0,1-14.22-9.64,31.21,31.21,0,0,1-4.74-12.91c-.8-5.29-1.32-10.64-1.61-16s-.36-10.89-.2-16.33c.23-8.46.33-17,3.06-25.11,2.79-8.36,7.58-14.91,16.26-18a47,47,0,0,1,28.45-.89,24.44,24.44,0,0,1,14.32,9.92A28.82,28.82,0,0,1,207,35.52Z"/>
          <path d="M72,75.82H93c0,.74.07,1.47.12,2.2.15,2,.19,4.12.47,6.16.78,5.79,3.92,8.71,9.72,9A11.69,11.69,0,0,0,111,91.39c2.7-1.93,3.64-4.74,4-7.85.55-5.1-2-8.84-5.77-11.65-4.14-3.06-8.63-5.66-13-8.5s-8.74-5.33-12.68-8.52C77,49.6,73.22,42.75,73.21,34.14a32.64,32.64,0,0,1,3.22-15.21A21.09,21.09,0,0,1,87.33,9a41.84,41.84,0,0,1,16.32-3.17c4.34,0,8.68-.18,12.95.91,10.88,2.76,16.29,8.28,18.1,19.39.5,3,1.06,6.12.1,9.38H114.6a40.66,40.66,0,0,0-.41-5.13,26.9,26.9,0,0,0-1.64-5.49A6.49,6.49,0,0,0,107.28,21,13.4,13.4,0,0,0,99,22.1a7.75,7.75,0,0,0-3.84,4.69,12.16,12.16,0,0,0,3.74,13.64,95.4,95.4,0,0,0,10.35,6.77c5.4,3.18,11,6,15.92,10,6.48,5.28,10.66,11.74,11,20.39.23,5.38-.15,10.64-2.31,15.57a22,22,0,0,1-10.21,11A39.36,39.36,0,0,1,108.82,108a60.58,60.58,0,0,1-17.68-.74c-7.26-1.46-13-5.17-16.35-12a31.9,31.9,0,0,1-2.92-13C71.78,80.17,72,78.05,72,75.82Z"/>
          <path d="M274.35,35.52H254.28c-.18-1.78-.22-3.5-.55-5.16a28.82,28.82,0,0,0-1.54-5.31c-1.21-2.95-3.69-4.14-6.75-4.2a18,18,0,0,0-3.89.27c-6.44,1.26-8.11,7.27-7.12,12.46.83,4.33,3.67,7.19,7.22,9.37,4.87,3,9.87,5.78,14.81,8.66a55.37,55.37,0,0,1,10.31,7.22A29.12,29.12,0,0,1,274,69a23,23,0,0,1,1.23,5.21,45.33,45.33,0,0,1-.66,15.18A20.66,20.66,0,0,1,270,98.77a24.23,24.23,0,0,1-9.57,6.66c-4,1.71-8.23,2.18-12.49,2.6a60.93,60.93,0,0,1-17.88-.89,21.73,21.73,0,0,1-13.88-8.68,26.73,26.73,0,0,1-4.6-13.35,31.31,31.31,0,0,1,.18-9.31h20.68c.12,2.11.23,4.15.36,6.18a18.82,18.82,0,0,0,.25,2.26c1.2,6.34,3.93,8.45,9.82,8.91a18.35,18.35,0,0,0,5.48-.71c3-.71,4.62-3,5.55-5.68a12.34,12.34,0,0,0-4-13.94c-4.41-3.7-9.38-6.53-14.27-9.5-3.82-2.32-7.6-4.74-11.21-7.38a29.37,29.37,0,0,1-8.36-9.34,26.46,26.46,0,0,1-3-16.77,39.72,39.72,0,0,1,1.42-7.28A21.67,21.67,0,0,1,227.28,8.81a40.28,40.28,0,0,1,13.88-3,79.65,79.65,0,0,1,11.35.26c5.43.54,10.6,2.17,14.74,5.89a20.42,20.42,0,0,1,7.09,14.88C274.43,29.67,274.35,32.48,274.35,35.52Z"/>
        </g>
        <g>
          <path d="M285.42,8.88h7.18l17.93,56.57c3.71,11.86,6.26,20.78,10.23,32.53h.59c4-11.75,6.54-20.67,10.23-32.53L349.49,8.88h6.82l-31.67,96.87h-7.29Z"/>
          <path d="M368,12.35a5.91,5.91,0,0,1,11.82,0,5.91,5.91,0,0,1-11.82,0Zm2.53,22.81H377v70.59h-6.5Z"/>
          <path d="M394.65,102.29l41.69-61.45H399.2V35.16h45.57v3.47l-41.69,61.45h43.11v5.67H394.65Z"/>
          <path d="M463.56,96.29V0h6.5V97.17c0,3.15,1.29,4.62,3.06,4.62a10.88,10.88,0,0,0,2.64-.3l1.09,5.29a14.42,14.42,0,0,1-4.68.74C466.5,107.52,463.56,104,463.56,96.29Z"/>
          <path d="M493.34,88.19c0-15.69,14.15-23.16,45.55-26.62.2-10.85-2.77-22.47-16.65-22.47-9.52,0-17.75,4.71-22.49,8.29l-3-4.82c5-3.53,14.79-9.17,26.26-9.17,16.73,0,22.37,12.14,22.37,27.25v45.1h-5.49l-.71-9.17h-.32c-7.21,5.82-15.79,10.94-25.05,10.94C502.63,107.52,493.34,101.43,493.34,88.19Zm45.55,2.34v-24c-29,3.36-38.9,10.09-38.9,21.35,0,10.13,6.85,14,15,14S530.15,98,538.89,90.53Z"/>
          <path d="M577.05,98.61h-.33l-.73,7.14h-5.41V0h6.5V30.69l-.33,13.76c7.13-6,15.72-11.05,24.3-11.05,18.94,0,28.27,14.17,28.27,36,0,24-14.46,38.12-31.1,38.12C591.48,107.52,583.69,104,577.05,98.61ZM622.5,69.44c0-17.34-6.17-30.28-22.46-30.28-7,0-14.7,4.12-23,11.64V92.67c7.7,6.62,15.43,9.09,20.78,9.09C612.21,101.76,622.5,88.58,622.5,69.44Z"/>
        </g>
      </g>
      <g>
        <path d="M.56,148.49H3.65l5.63,20.2c.75,2.89,1.48,5.56,2.12,8.35h.26c.75-2.79,1.5-5.47,2.28-8.35l5.68-20.2H23l5.69,20.2c.78,2.89,1.53,5.56,2.3,8.35h.26c.75-2.79,1.48-5.46,2.23-8.35L39,148.49h2.9L33,179.69H29.24l-5.5-19.37c-.87-3-1.51-5.86-2.38-8.91H21.1c-.75,3.05-1.49,6-2.48,9l-5.37,19.25H9.76Z"/>
        <path d="M46.61,171.93c0-6.93,6.25-10.23,20.13-11.77.09-4.79-1.22-9.93-7.36-9.93a17.09,17.09,0,0,0-9.94,3.67l-1.32-2.13a20.93,20.93,0,0,1,11.6-4.06c7.4,0,9.89,5.37,9.89,12v19.93H67.18l-.31-4.05h-.14c-3.19,2.57-7,4.83-11.08,4.83C50.72,180.47,46.61,177.78,46.61,171.93Zm20.13,1V162.35c-12.81,1.48-17.19,4.45-17.19,9.43,0,4.48,3,6.2,6.61,6.2S62.88,176.25,66.74,173Z"/>
        <path d="M80.76,171.08V151H75.89v-2.23l4.93-.28.37-9h2.44v9h9V151h-9v20.29c0,4,1,6.67,5.3,6.67a11.31,11.31,0,0,0,3.91-1l.76,2.32a17.85,17.85,0,0,1-5.1,1.17C82.51,180.47,80.76,176.67,80.76,171.08Z"/>
        <path d="M97,164.15c0-10.17,6.62-16.44,13.61-16.44,7.39,0,11.94,5.27,11.94,14.44a14.16,14.16,0,0,1-.16,2.34H99.91c.11,7.87,4.72,13.5,11.75,13.5a14.05,14.05,0,0,0,8.38-2.77l1.18,2.19a17.08,17.08,0,0,1-9.83,3.06C103.42,180.47,97,174.35,97,164.15Zm22.85-2c0-8-3.62-11.92-9.22-11.92-5.27,0-10,4.47-10.69,11.92Z"/>
        <path d="M131,148.49h2.43l.31,5.82h.14c2.11-3.83,5.17-6.6,8.88-6.6a6.61,6.61,0,0,1,3.09.65l-.65,2.6a6.91,6.91,0,0,0-2.82-.52c-2.81,0-6.13,2.13-8.51,8v21.22H131Z"/>
        <path d="M162,164.15c0-10.07,6.39-16.44,13.84-16.44,3.74,0,6.29,1.42,9.4,3.84l-.15-5.73V133h2.87v46.74h-2.43l-.31-4H185c-2.56,2.56-6,4.82-10.18,4.82C167,180.47,162,174.68,162,164.15Zm23.09,8.63v-18.5c-3.29-2.93-6-4-9.1-4-6.2,0-11,6.06-11,13.88,0,8.3,3.69,13.79,10.31,13.79C178.72,177.93,181.77,176.12,185.05,172.78Z"/>
        <path d="M197.66,171.93c0-6.93,6.25-10.23,20.13-11.77.09-4.79-1.22-9.93-7.35-9.93a17.06,17.06,0,0,0-9.94,3.67l-1.33-2.13c2.21-1.56,6.54-4.06,11.6-4.06,7.4,0,9.89,5.37,9.89,12v19.93h-2.43l-.31-4.05h-.14c-3.18,2.57-7,4.83-11.07,4.83C201.77,180.47,197.66,177.78,197.66,171.93Zm20.13,1V162.35c-12.81,1.48-17.19,4.45-17.19,9.43,0,4.48,3,6.2,6.61,6.2S213.93,176.25,217.79,173Z"/>
        <path d="M231.81,171.08V151h-4.87v-2.23l4.94-.28.36-9h2.44v9h9V151h-9v20.29c0,4,1,6.67,5.31,6.67a11.37,11.37,0,0,0,3.91-1l.75,2.32a17.87,17.87,0,0,1-5.09,1.17C233.57,180.47,231.81,176.67,231.81,171.08Z"/>
        <path d="M247.69,171.93c0-6.93,6.25-10.23,20.13-11.77.09-4.79-1.22-9.93-7.36-9.93a17.09,17.09,0,0,0-9.94,3.67l-1.32-2.13a20.93,20.93,0,0,1,11.6-4.06c7.4,0,9.89,5.37,9.89,12v19.93h-2.43l-.31-4.05h-.14c-3.19,2.57-7,4.83-11.07,4.83C251.8,180.47,247.69,177.78,247.69,171.93Zm20.13,1V162.35c-12.81,1.48-17.19,4.45-17.19,9.43,0,4.48,3,6.2,6.61,6.2S264,176.25,267.82,173Z"/>
        <path d="M289.61,148.49h3.1l7,19.55c1,3,2.15,6.16,3.16,9h.26c1-2.8,2.14-5.95,3.16-9l7-19.55h2.94l-11.55,31.2h-3.39Z"/>
        <path d="M321.9,138.41a2.61,2.61,0,0,1,5.22,0,2.61,2.61,0,0,1-5.22,0ZM323,148.49h2.87v31.2H323Z"/>
        <path d="M334,176.16l1.66-2.09c2.64,2.21,5.48,4,9.92,4,4.91,0,7.45-2.87,7.45-6.16,0-3.91-4-5.63-7.64-6.93-4.7-1.67-9.94-3.59-9.94-8.91,0-4.5,3.56-8.31,10.06-8.31a14.67,14.67,0,0,1,8.92,3.24L352.89,153a11.86,11.86,0,0,0-7.45-2.85c-4.86,0-7.07,2.8-7.07,5.68,0,3.56,3.68,4.91,7.4,6.31C350.6,164,356,165.59,356,171.68c0,4.7-3.76,8.79-10.52,8.79A17.81,17.81,0,0,1,334,176.16Z"/>
        <path d="M363.71,168.5v-20h2.87v19.64c0,6.61,2.1,9.76,7.11,9.76,3.72,0,6.41-1.95,10.06-6.37v-23h2.87v31.2h-2.43l-.31-5.22h-.14c-3.07,3.59-6.29,6-10.59,6C366.7,180.47,363.71,176.56,363.71,168.5Z"/>
        <path d="M396.34,171.93c0-6.93,6.25-10.23,20.13-11.77.09-4.79-1.22-9.93-7.36-9.93a17.06,17.06,0,0,0-9.94,3.67l-1.32-2.13a20.93,20.93,0,0,1,11.6-4.06c7.39,0,9.89,5.37,9.89,12v19.93h-2.43l-.31-4.05h-.15c-3.18,2.57-7,4.83-11.07,4.83C400.45,180.47,396.34,177.78,396.34,171.93Zm20.13,1V162.35c-12.82,1.48-17.19,4.45-17.19,9.43,0,4.48,3,6.2,6.61,6.2S412.61,176.25,416.47,173Z"/>
        <path d="M430.47,175.51V133h2.88v43c0,1.39.57,2,1.35,2a4.94,4.94,0,0,0,1.17-.13l.48,2.34a6.51,6.51,0,0,1-2.07.32C431.77,180.47,430.47,178.93,430.47,175.51Z"/>
        <path d="M444.75,138.41a2.62,2.62,0,0,1,5.23,0,2.62,2.62,0,0,1-5.23,0Zm1.12,10.08h2.87v31.2h-2.87Z"/>
        <path d="M456.54,178.16,475,151H458.55v-2.51h20.14V150l-18.42,27.16h19.05v2.5H456.54Z"/>
        <path d="M482.94,171.93c0-6.93,6.25-10.23,20.13-11.77.09-4.79-1.22-9.93-7.35-9.93a17.13,17.13,0,0,0-10,3.67l-1.32-2.13c2.21-1.56,6.54-4.06,11.6-4.06,7.4,0,9.89,5.37,9.89,12v19.93h-2.43l-.31-4.05h-.14c-3.19,2.57-7,4.83-11.07,4.83C487.05,180.47,482.94,177.78,482.94,171.93Zm20.13,1V162.35c-12.81,1.48-17.19,4.45-17.19,9.43,0,4.48,3,6.2,6.61,6.2S499.21,176.25,503.07,173Z"/>
        <path d="M517.09,171.08V151h-4.87v-2.23l4.94-.28.36-9H520v9h9V151h-9v20.29c0,4,1,6.67,5.3,6.67a11.42,11.42,0,0,0,3.92-1l.75,2.32a17.85,17.85,0,0,1-5.1,1.17C518.84,180.47,517.09,176.67,517.09,171.08Z"/>
        <path d="M535.52,138.41a2.61,2.61,0,0,1,5.22,0,2.61,2.61,0,0,1-5.22,0Zm1.11,10.08h2.87v31.2h-2.87Z"/>
        <path d="M548.89,164.15c0-10.43,6.51-16.44,14-16.44s14,6,14,16.44-6.51,16.32-14,16.32S548.89,174.47,548.89,164.15Zm25,0c0-8.21-4.69-13.9-11-13.9s-11,5.69-11,13.9,4.69,13.79,11,13.79S573.89,172.36,573.89,164.15Z"/>
        <path d="M586.27,148.49h2.43l.31,4.84h.14c3.19-3.17,6.44-5.62,10.74-5.62,6.44,0,9.43,3.91,9.43,12v20h-2.87V160.06c0-6.62-2.09-9.76-7.11-9.76-3.72,0-6.41,2-10.2,5.86v23.53h-2.87Z"/>
        <path d="M617,176.16l1.66-2.09c2.64,2.21,5.48,4,9.91,4,4.92,0,7.46-2.87,7.46-6.16,0-3.91-4-5.63-7.64-6.93-4.7-1.67-9.94-3.59-9.94-8.91,0-4.5,3.56-8.31,10.06-8.31a14.62,14.62,0,0,1,8.91,3.24L635.83,153a11.86,11.86,0,0,0-7.45-2.85c-4.86,0-7.07,2.8-7.07,5.68,0,3.56,3.68,4.91,7.4,6.31,4.83,1.84,10.18,3.43,10.18,9.52,0,4.7-3.75,8.79-10.51,8.79A17.81,17.81,0,0,1,617,176.16Z"/>
      </g>
    </g>
  </g>
</svg>
